<?xml version="1.0" encoding="utf-8" standalone="no"?>
<!DOCTYPE svg PUBLIC "-//W3C//DTD SVG 1.1//EN"
  "http://www.w3.org/Graphics/SVG/1.1/DTD/svg11.dtd">
<!-- Created with matplotlib (https://matplotlib.org/) -->
<svg height="720pt" version="1.1" viewBox="0 0 1440 720" width="1440pt" xmlns="http://www.w3.org/2000/svg" xmlns:xlink="http://www.w3.org/1999/xlink">
 <metadata>
  <rdf:RDF xmlns:cc="http://creativecommons.org/ns#" xmlns:dc="http://purl.org/dc/elements/1.1/" xmlns:rdf="http://www.w3.org/1999/02/22-rdf-syntax-ns#">
   <cc:Work>
    <dc:type rdf:resource="http://purl.org/dc/dcmitype/StillImage"/>
    <dc:date>2021-09-15T11:57:58.830736</dc:date>
    <dc:format>image/svg+xml</dc:format>
    <dc:creator>
     <cc:Agent>
      <dc:title>Matplotlib v3.3.4, https://matplotlib.org/</dc:title>
     </cc:Agent>
    </dc:creator>
   </cc:Work>
  </rdf:RDF>
 </metadata>
 <defs>
  <style type="text/css">*{stroke-linecap:butt;stroke-linejoin:round;}</style>
 </defs>
 <g id="figure_1">
  <g id="patch_1">
   <path d="M 0 720 
L 1440 720 
L 1440 0 
L 0 0 
z
" style="fill:#ffffff;"/>
  </g>
  <g id="axes_1">
   <g id="patch_2">
    <path d="M 180 630 
L 687.272727 630 
L 687.272727 86.4 
L 180 86.4 
z
" style="fill:#ffffff;"/>
   </g>
   <g id="PathCollection_1">
    <defs>
     <path d="M 0 4.5 
C 1.193414 4.5 2.338109 4.025852 3.181981 3.181981 
C 4.025852 2.338109 4.5 1.193414 4.5 0 
C 4.5 -1.193414 4.025852 -2.338109 3.181981 -3.181981 
C 2.338109 -4.025852 1.193414 -4.5 0 -4.5 
C -1.193414 -4.5 -2.338109 -4.025852 -3.181981 -3.181981 
C -4.025852 -2.338109 -4.5 -1.193414 -4.5 0 
C -4.5 1.193414 -4.025852 2.338109 -3.181981 3.181981 
C -2.338109 4.025852 -1.193414 4.5 0 4.5 
z
" id="m0e0b0cdd06" style="stroke:#ffffff;stroke-width:0.75;"/>
    </defs>
    <g clip-path="url(#p935c5dc453)">
     <use style="stroke:#ffffff;stroke-width:0.75;" x="365.606709" xlink:href="#m0e0b0cdd06" y="470.264216"/>
     <use style="stroke:#ffffff;stroke-width:0.75;" x="249.138778" xlink:href="#m0e0b0cdd06" y="569.284173"/>
     <use style="stroke:#ffffff;stroke-width:0.75;" x="512.419758" xlink:href="#m0e0b0cdd06" y="484.754487"/>
     <use style="stroke:#ffffff;stroke-width:0.75;" x="478.482197" xlink:href="#m0e0b0cdd06" y="391.594934"/>
     <use style="stroke:#ffffff;stroke-width:0.75;" x="438.898739" xlink:href="#m0e0b0cdd06" y="419.612048"/>
     <use style="stroke:#ffffff;stroke-width:0.75;" x="467.647389" xlink:href="#m0e0b0cdd06" y="406.625309"/>
     <use style="stroke:#ffffff;stroke-width:0.75;" x="441.893219" xlink:href="#m0e0b0cdd06" y="478.583612"/>
     <use style="stroke:#ffffff;stroke-width:0.75;" x="600.042364" xlink:href="#m0e0b0cdd06" y="522.164874"/>
     <use style="stroke:#ffffff;stroke-width:0.75;" x="351.135651" xlink:href="#m0e0b0cdd06" y="451.289197"/>
     <use style="stroke:#ffffff;stroke-width:0.75;" x="453.767481" xlink:href="#m0e0b0cdd06" y="450.99115"/>
     <use style="stroke:#ffffff;stroke-width:0.75;" x="535.186102" xlink:href="#m0e0b0cdd06" y="496.658488"/>
     <use style="stroke:#ffffff;stroke-width:0.75;" x="364.461304" xlink:href="#m0e0b0cdd06" y="498.965853"/>
     <use style="stroke:#ffffff;stroke-width:0.75;" x="350.64656" xlink:href="#m0e0b0cdd06" y="475.742719"/>
     <use style="stroke:#ffffff;stroke-width:0.75;" x="431.928119" xlink:href="#m0e0b0cdd06" y="407.687327"/>
     <use style="stroke:#ffffff;stroke-width:0.75;" x="421.742597" xlink:href="#m0e0b0cdd06" y="428.792558"/>
     <use style="stroke:#ffffff;stroke-width:0.75;" x="377.26023" xlink:href="#m0e0b0cdd06" y="309.107936"/>
     <use style="stroke:#ffffff;stroke-width:0.75;" x="311.775378" xlink:href="#m0e0b0cdd06" y="328.310802"/>
     <use style="stroke:#ffffff;stroke-width:0.75;" x="488.89623" xlink:href="#m0e0b0cdd06" y="329.474937"/>
     <use style="stroke:#ffffff;stroke-width:0.75;" x="466.320456" xlink:href="#m0e0b0cdd06" y="452.970756"/>
     <use style="stroke:#ffffff;stroke-width:0.75;" x="537.893577" xlink:href="#m0e0b0cdd06" y="378.987764"/>
     <use style="stroke:#ffffff;stroke-width:0.75;" x="445.024542" xlink:href="#m0e0b0cdd06" y="306.864748"/>
     <use style="stroke:#ffffff;stroke-width:0.75;" x="355.034359" xlink:href="#m0e0b0cdd06" y="466.597179"/>
     <use style="stroke:#ffffff;stroke-width:0.75;" x="203.057851" xlink:href="#m0e0b0cdd06" y="484.822837"/>
     <use style="stroke:#ffffff;stroke-width:0.75;" x="541.263777" xlink:href="#m0e0b0cdd06" y="460.751089"/>
     <use style="stroke:#ffffff;stroke-width:0.75;" x="586.592525" xlink:href="#m0e0b0cdd06" y="507.608327"/>
     <use style="stroke:#ffffff;stroke-width:0.75;" x="538.352456" xlink:href="#m0e0b0cdd06" y="431.789321"/>
     <use style="stroke:#ffffff;stroke-width:0.75;" x="491.505661" xlink:href="#m0e0b0cdd06" y="452.564829"/>
     <use style="stroke:#ffffff;stroke-width:0.75;" x="402.464522" xlink:href="#m0e0b0cdd06" y="450.843852"/>
     <use style="stroke:#ffffff;stroke-width:0.75;" x="341.597444" xlink:href="#m0e0b0cdd06" y="504.916126"/>
     <use style="stroke:#ffffff;stroke-width:0.75;" x="565.291756" xlink:href="#m0e0b0cdd06" y="494.756131"/>
     <use style="stroke:#ffffff;stroke-width:0.75;" x="412.588708" xlink:href="#m0e0b0cdd06" y="472.787977"/>
     <use style="stroke:#ffffff;stroke-width:0.75;" x="316.558005" xlink:href="#m0e0b0cdd06" y="339.944781"/>
     <use style="stroke:#ffffff;stroke-width:0.75;" x="413.908939" xlink:href="#m0e0b0cdd06" y="395.140816"/>
     <use style="stroke:#ffffff;stroke-width:0.75;" x="451.679526" xlink:href="#m0e0b0cdd06" y="467.875531"/>
     <use style="stroke:#ffffff;stroke-width:0.75;" x="528.031535" xlink:href="#m0e0b0cdd06" y="212.470373"/>
     <use style="stroke:#ffffff;stroke-width:0.75;" x="423.748096" xlink:href="#m0e0b0cdd06" y="473.081894"/>
     <use style="stroke:#ffffff;stroke-width:0.75;" x="407.856445" xlink:href="#m0e0b0cdd06" y="448.199713"/>
     <use style="stroke:#ffffff;stroke-width:0.75;" x="467.287159" xlink:href="#m0e0b0cdd06" y="478.26965"/>
     <use style="stroke:#ffffff;stroke-width:0.75;" x="462.718507" xlink:href="#m0e0b0cdd06" y="407.767142"/>
     <use style="stroke:#ffffff;stroke-width:0.75;" x="388.345921" xlink:href="#m0e0b0cdd06" y="409.227017"/>
     <use style="stroke:#ffffff;stroke-width:0.75;" x="406.433323" xlink:href="#m0e0b0cdd06" y="472.559696"/>
     <use style="stroke:#ffffff;stroke-width:0.75;" x="446.00376" xlink:href="#m0e0b0cdd06" y="425.225546"/>
     <use style="stroke:#ffffff;stroke-width:0.75;" x="267.017465" xlink:href="#m0e0b0cdd06" y="383.443579"/>
     <use style="stroke:#ffffff;stroke-width:0.75;" x="286.021088" xlink:href="#m0e0b0cdd06" y="567.351943"/>
     <use style="stroke:#ffffff;stroke-width:0.75;" x="241.877031" xlink:href="#m0e0b0cdd06" y="599.570694"/>
     <use style="stroke:#ffffff;stroke-width:0.75;" x="427.4827" xlink:href="#m0e0b0cdd06" y="397.067288"/>
     <use style="stroke:#ffffff;stroke-width:0.75;" x="547.585398" xlink:href="#m0e0b0cdd06" y="404.963228"/>
     <use style="stroke:#ffffff;stroke-width:0.75;" x="483.055768" xlink:href="#m0e0b0cdd06" y="379.906061"/>
     <use style="stroke:#ffffff;stroke-width:0.75;" x="412.338945" xlink:href="#m0e0b0cdd06" y="437.305404"/>
     <use style="stroke:#ffffff;stroke-width:0.75;" x="286.45576" xlink:href="#m0e0b0cdd06" y="418.348625"/>
     <use style="stroke:#ffffff;stroke-width:0.75;" x="294.140658" xlink:href="#m0e0b0cdd06" y="543.283069"/>
     <use style="stroke:#ffffff;stroke-width:0.75;" x="416.64676" xlink:href="#m0e0b0cdd06" y="147.926497"/>
     <use style="stroke:#ffffff;stroke-width:0.75;" x="214.766353" xlink:href="#m0e0b0cdd06" y="548.772759"/>
     <use style="stroke:#ffffff;stroke-width:0.75;" x="346.601978" xlink:href="#m0e0b0cdd06" y="472.507413"/>
     <use style="stroke:#ffffff;stroke-width:0.75;" x="356.445086" xlink:href="#m0e0b0cdd06" y="313.978567"/>
     <use style="stroke:#ffffff;stroke-width:0.75;" x="273.845846" xlink:href="#m0e0b0cdd06" y="475.357767"/>
     <use style="stroke:#ffffff;stroke-width:0.75;" x="498.727381" xlink:href="#m0e0b0cdd06" y="463.53098"/>
     <use style="stroke:#ffffff;stroke-width:0.75;" x="395.716839" xlink:href="#m0e0b0cdd06" y="475.844159"/>
     <use style="stroke:#ffffff;stroke-width:0.75;" x="493.970896" xlink:href="#m0e0b0cdd06" y="424.357855"/>
     <use style="stroke:#ffffff;stroke-width:0.75;" x="352.192584" xlink:href="#m0e0b0cdd06" y="449.159417"/>
     <use style="stroke:#ffffff;stroke-width:0.75;" x="380.449419" xlink:href="#m0e0b0cdd06" y="571.882782"/>
     <use style="stroke:#ffffff;stroke-width:0.75;" x="333.870709" xlink:href="#m0e0b0cdd06" y="140.152353"/>
     <use style="stroke:#ffffff;stroke-width:0.75;" x="407.804192" xlink:href="#m0e0b0cdd06" y="468.605281"/>
     <use style="stroke:#ffffff;stroke-width:0.75;" x="587.346908" xlink:href="#m0e0b0cdd06" y="461.555669"/>
     <use style="stroke:#ffffff;stroke-width:0.75;" x="379.036938" xlink:href="#m0e0b0cdd06" y="461.33313"/>
     <use style="stroke:#ffffff;stroke-width:0.75;" x="361.504363" xlink:href="#m0e0b0cdd06" y="491.54311"/>
     <use style="stroke:#ffffff;stroke-width:0.75;" x="354.198566" xlink:href="#m0e0b0cdd06" y="469.052473"/>
     <use style="stroke:#ffffff;stroke-width:0.75;" x="442.415716" xlink:href="#m0e0b0cdd06" y="594.259749"/>
     <use style="stroke:#ffffff;stroke-width:0.75;" x="612.649904" xlink:href="#m0e0b0cdd06" y="591.257947"/>
     <use style="stroke:#ffffff;stroke-width:0.75;" x="581.598525" xlink:href="#m0e0b0cdd06" y="520.104479"/>
     <use style="stroke:#ffffff;stroke-width:0.75;" x="405.690706" xlink:href="#m0e0b0cdd06" y="111.109091"/>
     <use style="stroke:#ffffff;stroke-width:0.75;" x="393.497704" xlink:href="#m0e0b0cdd06" y="379.108158"/>
     <use style="stroke:#ffffff;stroke-width:0.75;" x="534.72752" xlink:href="#m0e0b0cdd06" y="454.079579"/>
     <use style="stroke:#ffffff;stroke-width:0.75;" x="328.504125" xlink:href="#m0e0b0cdd06" y="342.853248"/>
     <use style="stroke:#ffffff;stroke-width:0.75;" x="328.534069" xlink:href="#m0e0b0cdd06" y="474.231613"/>
     <use style="stroke:#ffffff;stroke-width:0.75;" x="289.164434" xlink:href="#m0e0b0cdd06" y="525.846514"/>
     <use style="stroke:#ffffff;stroke-width:0.75;" x="438.73516" xlink:href="#m0e0b0cdd06" y="516.63855"/>
     <use style="stroke:#ffffff;stroke-width:0.75;" x="406.944209" xlink:href="#m0e0b0cdd06" y="605.290909"/>
     <use style="stroke:#ffffff;stroke-width:0.75;" x="205.476637" xlink:href="#m0e0b0cdd06" y="527.820139"/>
     <use style="stroke:#ffffff;stroke-width:0.75;" x="251.345023" xlink:href="#m0e0b0cdd06" y="593.482594"/>
     <use style="stroke:#ffffff;stroke-width:0.75;" x="258.588724" xlink:href="#m0e0b0cdd06" y="583.830892"/>
     <use style="stroke:#ffffff;stroke-width:0.75;" x="562.982027" xlink:href="#m0e0b0cdd06" y="565.4715"/>
     <use style="stroke:#ffffff;stroke-width:0.75;" x="480.439502" xlink:href="#m0e0b0cdd06" y="367.894904"/>
     <use style="stroke:#ffffff;stroke-width:0.75;" x="515.251386" xlink:href="#m0e0b0cdd06" y="506.013349"/>
     <use style="stroke:#ffffff;stroke-width:0.75;" x="365.381031" xlink:href="#m0e0b0cdd06" y="221.908842"/>
     <use style="stroke:#ffffff;stroke-width:0.75;" x="542.962696" xlink:href="#m0e0b0cdd06" y="451.35182"/>
     <use style="stroke:#ffffff;stroke-width:0.75;" x="319.46131" xlink:href="#m0e0b0cdd06" y="440.598962"/>
     <use style="stroke:#ffffff;stroke-width:0.75;" x="396.541673" xlink:href="#m0e0b0cdd06" y="547.852137"/>
     <use style="stroke:#ffffff;stroke-width:0.75;" x="345.296192" xlink:href="#m0e0b0cdd06" y="340.741235"/>
     <use style="stroke:#ffffff;stroke-width:0.75;" x="270.450863" xlink:href="#m0e0b0cdd06" y="416.763413"/>
     <use style="stroke:#ffffff;stroke-width:0.75;" x="406.24648" xlink:href="#m0e0b0cdd06" y="319.028798"/>
     <use style="stroke:#ffffff;stroke-width:0.75;" x="490.934211" xlink:href="#m0e0b0cdd06" y="422.406818"/>
     <use style="stroke:#ffffff;stroke-width:0.75;" x="301.754763" xlink:href="#m0e0b0cdd06" y="418.569474"/>
     <use style="stroke:#ffffff;stroke-width:0.75;" x="530.454407" xlink:href="#m0e0b0cdd06" y="445.665719"/>
     <use style="stroke:#ffffff;stroke-width:0.75;" x="447.899306" xlink:href="#m0e0b0cdd06" y="409.669202"/>
     <use style="stroke:#ffffff;stroke-width:0.75;" x="500.933532" xlink:href="#m0e0b0cdd06" y="402.820059"/>
     <use style="stroke:#ffffff;stroke-width:0.75;" x="500.496557" xlink:href="#m0e0b0cdd06" y="414.693503"/>
     <use style="stroke:#ffffff;stroke-width:0.75;" x="339.519543" xlink:href="#m0e0b0cdd06" y="434.146259"/>
     <use style="stroke:#ffffff;stroke-width:0.75;" x="253.521094" xlink:href="#m0e0b0cdd06" y="463.360886"/>
     <use style="stroke:#ffffff;stroke-width:0.75;" x="430.922156" xlink:href="#m0e0b0cdd06" y="350.83775"/>
     <use style="stroke:#ffffff;stroke-width:0.75;" x="361.209019" xlink:href="#m0e0b0cdd06" y="519.545644"/>
     <use style="stroke:#ffffff;stroke-width:0.75;" x="253.068844" xlink:href="#m0e0b0cdd06" y="493.652128"/>
     <use style="stroke:#ffffff;stroke-width:0.75;" x="346.311174" xlink:href="#m0e0b0cdd06" y="488.259494"/>
     <use style="stroke:#ffffff;stroke-width:0.75;" x="314.399811" xlink:href="#m0e0b0cdd06" y="297.83153"/>
     <use style="stroke:#ffffff;stroke-width:0.75;" x="474.90126" xlink:href="#m0e0b0cdd06" y="458.479689"/>
     <use style="stroke:#ffffff;stroke-width:0.75;" x="383.625994" xlink:href="#m0e0b0cdd06" y="398.53921"/>
     <use style="stroke:#ffffff;stroke-width:0.75;" x="365.952448" xlink:href="#m0e0b0cdd06" y="547.956316"/>
     <use style="stroke:#ffffff;stroke-width:0.75;" x="285.054512" xlink:href="#m0e0b0cdd06" y="464.084835"/>
     <use style="stroke:#ffffff;stroke-width:0.75;" x="440.726129" xlink:href="#m0e0b0cdd06" y="483.548629"/>
     <use style="stroke:#ffffff;stroke-width:0.75;" x="426.035161" xlink:href="#m0e0b0cdd06" y="543.516268"/>
     <use style="stroke:#ffffff;stroke-width:0.75;" x="316.54525" xlink:href="#m0e0b0cdd06" y="386.458512"/>
     <use style="stroke:#ffffff;stroke-width:0.75;" x="414.455888" xlink:href="#m0e0b0cdd06" y="353.722723"/>
     <use style="stroke:#ffffff;stroke-width:0.75;" x="431.778558" xlink:href="#m0e0b0cdd06" y="472.515228"/>
     <use style="stroke:#ffffff;stroke-width:0.75;" x="285.25216" xlink:href="#m0e0b0cdd06" y="435.919822"/>
     <use style="stroke:#ffffff;stroke-width:0.75;" x="535.220723" xlink:href="#m0e0b0cdd06" y="547.94208"/>
     <use style="stroke:#ffffff;stroke-width:0.75;" x="399.262933" xlink:href="#m0e0b0cdd06" y="409.601275"/>
     <use style="stroke:#ffffff;stroke-width:0.75;" x="301.315004" xlink:href="#m0e0b0cdd06" y="483.784979"/>
     <use style="stroke:#ffffff;stroke-width:0.75;" x="427.634475" xlink:href="#m0e0b0cdd06" y="531.068311"/>
     <use style="stroke:#ffffff;stroke-width:0.75;" x="626.015505" xlink:href="#m0e0b0cdd06" y="510.964197"/>
     <use style="stroke:#ffffff;stroke-width:0.75;" x="552.429543" xlink:href="#m0e0b0cdd06" y="434.067186"/>
     <use style="stroke:#ffffff;stroke-width:0.75;" x="664.214876" xlink:href="#m0e0b0cdd06" y="588.82619"/>
     <use style="stroke:#ffffff;stroke-width:0.75;" x="597.951622" xlink:href="#m0e0b0cdd06" y="568.375722"/>
     <use style="stroke:#ffffff;stroke-width:0.75;" x="351.469009" xlink:href="#m0e0b0cdd06" y="492.701428"/>
     <use style="stroke:#ffffff;stroke-width:0.75;" x="588.676502" xlink:href="#m0e0b0cdd06" y="450.415077"/>
     <use style="stroke:#ffffff;stroke-width:0.75;" x="331.708008" xlink:href="#m0e0b0cdd06" y="393.930066"/>
     <use style="stroke:#ffffff;stroke-width:0.75;" x="409.98596" xlink:href="#m0e0b0cdd06" y="525.928314"/>
     <use style="stroke:#ffffff;stroke-width:0.75;" x="359.287742" xlink:href="#m0e0b0cdd06" y="372.651451"/>
     <use style="stroke:#ffffff;stroke-width:0.75;" x="466.284839" xlink:href="#m0e0b0cdd06" y="388.701123"/>
     <use style="stroke:#ffffff;stroke-width:0.75;" x="486.587242" xlink:href="#m0e0b0cdd06" y="462.278606"/>
     <use style="stroke:#ffffff;stroke-width:0.75;" x="365.965116" xlink:href="#m0e0b0cdd06" y="445.966022"/>
     <use style="stroke:#ffffff;stroke-width:0.75;" x="338.309954" xlink:href="#m0e0b0cdd06" y="386.45444"/>
     <use style="stroke:#ffffff;stroke-width:0.75;" x="299.637166" xlink:href="#m0e0b0cdd06" y="262.127459"/>
     <use style="stroke:#ffffff;stroke-width:0.75;" x="357.050192" xlink:href="#m0e0b0cdd06" y="410.558095"/>
     <use style="stroke:#ffffff;stroke-width:0.75;" x="360.808703" xlink:href="#m0e0b0cdd06" y="436.323644"/>
     <use style="stroke:#ffffff;stroke-width:0.75;" x="468.435534" xlink:href="#m0e0b0cdd06" y="499.032508"/>
     <use style="stroke:#ffffff;stroke-width:0.75;" x="251.225904" xlink:href="#m0e0b0cdd06" y="560.67535"/>
     <use style="stroke:#ffffff;stroke-width:0.75;" x="282.456124" xlink:href="#m0e0b0cdd06" y="514.702712"/>
     <use style="stroke:#ffffff;stroke-width:0.75;" x="405.402291" xlink:href="#m0e0b0cdd06" y="454.867612"/>
     <use style="stroke:#ffffff;stroke-width:0.75;" x="441.811867" xlink:href="#m0e0b0cdd06" y="384.435782"/>
     <use style="stroke:#ffffff;stroke-width:0.75;" x="398.37275" xlink:href="#m0e0b0cdd06" y="330.713661"/>
     <use style="stroke:#ffffff;stroke-width:0.75;" x="466.427938" xlink:href="#m0e0b0cdd06" y="430.572267"/>
     <use style="stroke:#ffffff;stroke-width:0.75;" x="376.364743" xlink:href="#m0e0b0cdd06" y="511.727995"/>
     <use style="stroke:#ffffff;stroke-width:0.75;" x="453.222885" xlink:href="#m0e0b0cdd06" y="346.911836"/>
     <use style="stroke:#ffffff;stroke-width:0.75;" x="504.565738" xlink:href="#m0e0b0cdd06" y="409.787411"/>
     <use style="stroke:#ffffff;stroke-width:0.75;" x="431.967753" xlink:href="#m0e0b0cdd06" y="409.612885"/>
     <use style="stroke:#ffffff;stroke-width:0.75;" x="460.691573" xlink:href="#m0e0b0cdd06" y="327.217524"/>
     <use style="stroke:#ffffff;stroke-width:0.75;" x="367.499994" xlink:href="#m0e0b0cdd06" y="178.512385"/>
     <use style="stroke:#ffffff;stroke-width:0.75;" x="222.559201" xlink:href="#m0e0b0cdd06" y="551.190895"/>
     <use style="stroke:#ffffff;stroke-width:0.75;" x="499.831483" xlink:href="#m0e0b0cdd06" y="400.192272"/>
     <use style="stroke:#ffffff;stroke-width:0.75;" x="403.018218" xlink:href="#m0e0b0cdd06" y="508.701868"/>
     <use style="stroke:#ffffff;stroke-width:0.75;" x="410.977023" xlink:href="#m0e0b0cdd06" y="396.451398"/>
     <use style="stroke:#ffffff;stroke-width:0.75;" x="487.685598" xlink:href="#m0e0b0cdd06" y="477.149701"/>
     <use style="stroke:#ffffff;stroke-width:0.75;" x="536.66788" xlink:href="#m0e0b0cdd06" y="493.669151"/>
     <use style="stroke:#ffffff;stroke-width:0.75;" x="415.455256" xlink:href="#m0e0b0cdd06" y="396.462784"/>
     <use style="stroke:#ffffff;stroke-width:0.75;" x="302.85074" xlink:href="#m0e0b0cdd06" y="247.20922"/>
     <use style="stroke:#ffffff;stroke-width:0.75;" x="537.36652" xlink:href="#m0e0b0cdd06" y="459.452529"/>
     <use style="stroke:#ffffff;stroke-width:0.75;" x="425.38792" xlink:href="#m0e0b0cdd06" y="382.838514"/>
     <use style="stroke:#ffffff;stroke-width:0.75;" x="425.569561" xlink:href="#m0e0b0cdd06" y="391.477543"/>
     <use style="stroke:#ffffff;stroke-width:0.75;" x="493.957705" xlink:href="#m0e0b0cdd06" y="317.476896"/>
     <use style="stroke:#ffffff;stroke-width:0.75;" x="303.097731" xlink:href="#m0e0b0cdd06" y="467.627918"/>
     <use style="stroke:#ffffff;stroke-width:0.75;" x="418.488126" xlink:href="#m0e0b0cdd06" y="402.998564"/>
     <use style="stroke:#ffffff;stroke-width:0.75;" x="466.605394" xlink:href="#m0e0b0cdd06" y="419.334944"/>
     <use style="stroke:#ffffff;stroke-width:0.75;" x="411.715038" xlink:href="#m0e0b0cdd06" y="557.62474"/>
     <use style="stroke:#ffffff;stroke-width:0.75;" x="371.760515" xlink:href="#m0e0b0cdd06" y="418.167518"/>
     <use style="stroke:#ffffff;stroke-width:0.75;" x="412.94265" xlink:href="#m0e0b0cdd06" y="414.078143"/>
     <use style="stroke:#ffffff;stroke-width:0.75;" x="313.310281" xlink:href="#m0e0b0cdd06" y="419.450569"/>
     <use style="stroke:#ffffff;stroke-width:0.75;" x="491.170386" xlink:href="#m0e0b0cdd06" y="311.052938"/>
     <use style="stroke:#ffffff;stroke-width:0.75;" x="441.631773" xlink:href="#m0e0b0cdd06" y="311.622614"/>
     <use style="stroke:#ffffff;stroke-width:0.75;" x="482.534438" xlink:href="#m0e0b0cdd06" y="453.46818"/>
     <use style="stroke:#ffffff;stroke-width:0.75;" x="541.878336" xlink:href="#m0e0b0cdd06" y="480.237042"/>
     <use style="stroke:#ffffff;stroke-width:0.75;" x="493.054237" xlink:href="#m0e0b0cdd06" y="482.743208"/>
     <use style="stroke:#ffffff;stroke-width:0.75;" x="343.121184" xlink:href="#m0e0b0cdd06" y="464.346354"/>
     <use style="stroke:#ffffff;stroke-width:0.75;" x="485.832644" xlink:href="#m0e0b0cdd06" y="396.900357"/>
     <use style="stroke:#ffffff;stroke-width:0.75;" x="566.331337" xlink:href="#m0e0b0cdd06" y="499.656713"/>
     <use style="stroke:#ffffff;stroke-width:0.75;" x="578.353676" xlink:href="#m0e0b0cdd06" y="517.125356"/>
     <use style="stroke:#ffffff;stroke-width:0.75;" x="378.508612" xlink:href="#m0e0b0cdd06" y="428.383893"/>
     <use style="stroke:#ffffff;stroke-width:0.75;" x="548.260891" xlink:href="#m0e0b0cdd06" y="397.523982"/>
     <use style="stroke:#ffffff;stroke-width:0.75;" x="560.856096" xlink:href="#m0e0b0cdd06" y="355.270324"/>
     <use style="stroke:#ffffff;stroke-width:0.75;" x="563.728409" xlink:href="#m0e0b0cdd06" y="362.463352"/>
     <use style="stroke:#ffffff;stroke-width:0.75;" x="258.648799" xlink:href="#m0e0b0cdd06" y="455.697189"/>
     <use style="stroke:#ffffff;stroke-width:0.75;" x="341.593046" xlink:href="#m0e0b0cdd06" y="420.887176"/>
     <use style="stroke:#ffffff;stroke-width:0.75;" x="533.084944" xlink:href="#m0e0b0cdd06" y="462.063609"/>
     <use style="stroke:#ffffff;stroke-width:0.75;" x="328.42614" xlink:href="#m0e0b0cdd06" y="444.073587"/>
     <use style="stroke:#ffffff;stroke-width:0.75;" x="340.029636" xlink:href="#m0e0b0cdd06" y="422.439883"/>
     <use style="stroke:#ffffff;stroke-width:0.75;" x="491.361498" xlink:href="#m0e0b0cdd06" y="490.08958"/>
     <use style="stroke:#ffffff;stroke-width:0.75;" x="444.732692" xlink:href="#m0e0b0cdd06" y="534.859817"/>
     <use style="stroke:#ffffff;stroke-width:0.75;" x="377.943384" xlink:href="#m0e0b0cdd06" y="461.064564"/>
     <use style="stroke:#ffffff;stroke-width:0.75;" x="362.637332" xlink:href="#m0e0b0cdd06" y="478.402705"/>
     <use style="stroke:#ffffff;stroke-width:0.75;" x="215.025629" xlink:href="#m0e0b0cdd06" y="516.054295"/>
     <use style="stroke:#ffffff;stroke-width:0.75;" x="420.524852" xlink:href="#m0e0b0cdd06" y="357.911988"/>
     <use style="stroke:#ffffff;stroke-width:0.75;" x="324.072824" xlink:href="#m0e0b0cdd06" y="413.358273"/>
     <use style="stroke:#ffffff;stroke-width:0.75;" x="536.931584" xlink:href="#m0e0b0cdd06" y="488.661246"/>
     <use style="stroke:#ffffff;stroke-width:0.75;" x="482.690884" xlink:href="#m0e0b0cdd06" y="561.607688"/>
     <use style="stroke:#ffffff;stroke-width:0.75;" x="288.147917" xlink:href="#m0e0b0cdd06" y="501.077025"/>
     <use style="stroke:#ffffff;stroke-width:0.75;" x="333.774655" xlink:href="#m0e0b0cdd06" y="346.230049"/>
     <use style="stroke:#ffffff;stroke-width:0.75;" x="343.270387" xlink:href="#m0e0b0cdd06" y="405.09979"/>
     <use style="stroke:#ffffff;stroke-width:0.75;" x="441.329846" xlink:href="#m0e0b0cdd06" y="187.550721"/>
     <use style="stroke:#ffffff;stroke-width:0.75;" x="367.619499" xlink:href="#m0e0b0cdd06" y="329.834683"/>
     <use style="stroke:#ffffff;stroke-width:0.75;" x="415.742397" xlink:href="#m0e0b0cdd06" y="397.762703"/>
     <use style="stroke:#ffffff;stroke-width:0.75;" x="284.28475" xlink:href="#m0e0b0cdd06" y="468.071388"/>
     <use style="stroke:#ffffff;stroke-width:0.75;" x="278.829044" xlink:href="#m0e0b0cdd06" y="338.184673"/>
     <use style="stroke:#ffffff;stroke-width:0.75;" x="541.824523" xlink:href="#m0e0b0cdd06" y="486.272453"/>
     <use style="stroke:#ffffff;stroke-width:0.75;" x="353.216196" xlink:href="#m0e0b0cdd06" y="442.598779"/>
     <use style="stroke:#ffffff;stroke-width:0.75;" x="633.04236" xlink:href="#m0e0b0cdd06" y="531.039821"/>
     <use style="stroke:#ffffff;stroke-width:0.75;" x="327.605532" xlink:href="#m0e0b0cdd06" y="406.835261"/>
     <use style="stroke:#ffffff;stroke-width:0.75;" x="320.512255" xlink:href="#m0e0b0cdd06" y="159.006221"/>
     <use style="stroke:#ffffff;stroke-width:0.75;" x="550.590533" xlink:href="#m0e0b0cdd06" y="395.617147"/>
     <use style="stroke:#ffffff;stroke-width:0.75;" x="371.472113" xlink:href="#m0e0b0cdd06" y="258.952301"/>
     <use style="stroke:#ffffff;stroke-width:0.75;" x="386.66139" xlink:href="#m0e0b0cdd06" y="441.107966"/>
     <use style="stroke:#ffffff;stroke-width:0.75;" x="599.231427" xlink:href="#m0e0b0cdd06" y="546.922439"/>
     <use style="stroke:#ffffff;stroke-width:0.75;" x="398.753702" xlink:href="#m0e0b0cdd06" y="439.329012"/>
     <use style="stroke:#ffffff;stroke-width:0.75;" x="441.630239" xlink:href="#m0e0b0cdd06" y="256.538594"/>
     <use style="stroke:#ffffff;stroke-width:0.75;" x="398.574265" xlink:href="#m0e0b0cdd06" y="445.697365"/>
     <use style="stroke:#ffffff;stroke-width:0.75;" x="445.764796" xlink:href="#m0e0b0cdd06" y="470.993448"/>
    </g>
   </g>
   <g id="matplotlib.axis_1">
    <g id="xtick_1">
     <g id="line2d_1">
      <defs>
       <path d="M 0 0 
L 0 9 
" id="mfdda597f9f" style="stroke:#000000;stroke-width:1.875;"/>
      </defs>
      <g>
       <use style="stroke:#000000;stroke-width:1.875;" x="227.323328" xlink:href="#mfdda597f9f" y="630"/>
      </g>
     </g>
     <g id="text_1">
      <!-- 0.2 -->
      <g transform="translate(214.20325 655.037422)scale(0.165 -0.165)">
       <defs>
        <path d="M 31.78125 66.40625 
Q 24.171875 66.40625 20.328125 58.90625 
Q 16.5 51.421875 16.5 36.375 
Q 16.5 21.390625 20.328125 13.890625 
Q 24.171875 6.390625 31.78125 6.390625 
Q 39.453125 6.390625 43.28125 13.890625 
Q 47.125 21.390625 47.125 36.375 
Q 47.125 51.421875 43.28125 58.90625 
Q 39.453125 66.40625 31.78125 66.40625 
z
M 31.78125 74.21875 
Q 44.046875 74.21875 50.515625 64.515625 
Q 56.984375 54.828125 56.984375 36.375 
Q 56.984375 17.96875 50.515625 8.265625 
Q 44.046875 -1.421875 31.78125 -1.421875 
Q 19.53125 -1.421875 13.0625 8.265625 
Q 6.59375 17.96875 6.59375 36.375 
Q 6.59375 54.828125 13.0625 64.515625 
Q 19.53125 74.21875 31.78125 74.21875 
z
" id="DejaVuSans-48"/>
        <path d="M 10.6875 12.40625 
L 21 12.40625 
L 21 0 
L 10.6875 0 
z
" id="DejaVuSans-46"/>
        <path d="M 19.1875 8.296875 
L 53.609375 8.296875 
L 53.609375 0 
L 7.328125 0 
L 7.328125 8.296875 
Q 12.9375 14.109375 22.625 23.890625 
Q 32.328125 33.6875 34.8125 36.53125 
Q 39.546875 41.84375 41.421875 45.53125 
Q 43.3125 49.21875 43.3125 52.78125 
Q 43.3125 58.59375 39.234375 62.25 
Q 35.15625 65.921875 28.609375 65.921875 
Q 23.96875 65.921875 18.8125 64.3125 
Q 13.671875 62.703125 7.8125 59.421875 
L 7.8125 69.390625 
Q 13.765625 71.78125 18.9375 73 
Q 24.125 74.21875 28.421875 74.21875 
Q 39.75 74.21875 46.484375 68.546875 
Q 53.21875 62.890625 53.21875 53.421875 
Q 53.21875 48.921875 51.53125 44.890625 
Q 49.859375 40.875 45.40625 35.40625 
Q 44.1875 33.984375 37.640625 27.21875 
Q 31.109375 20.453125 19.1875 8.296875 
z
" id="DejaVuSans-50"/>
       </defs>
       <use xlink:href="#DejaVuSans-48"/>
       <use x="63.623047" xlink:href="#DejaVuSans-46"/>
       <use x="95.410156" xlink:href="#DejaVuSans-50"/>
      </g>
     </g>
    </g>
    <g id="xtick_2">
     <g id="line2d_2">
      <g>
       <use style="stroke:#000000;stroke-width:1.875;" x="298.177702" xlink:href="#mfdda597f9f" y="630"/>
      </g>
     </g>
     <g id="text_2">
      <!-- 0.3 -->
      <g transform="translate(285.057624 655.037422)scale(0.165 -0.165)">
       <defs>
        <path d="M 40.578125 39.3125 
Q 47.65625 37.796875 51.625 33 
Q 55.609375 28.21875 55.609375 21.1875 
Q 55.609375 10.40625 48.1875 4.484375 
Q 40.765625 -1.421875 27.09375 -1.421875 
Q 22.515625 -1.421875 17.65625 -0.515625 
Q 12.796875 0.390625 7.625 2.203125 
L 7.625 11.71875 
Q 11.71875 9.328125 16.59375 8.109375 
Q 21.484375 6.890625 26.8125 6.890625 
Q 36.078125 6.890625 40.9375 10.546875 
Q 45.796875 14.203125 45.796875 21.1875 
Q 45.796875 27.640625 41.28125 31.265625 
Q 36.765625 34.90625 28.71875 34.90625 
L 20.21875 34.90625 
L 20.21875 43.015625 
L 29.109375 43.015625 
Q 36.375 43.015625 40.234375 45.921875 
Q 44.09375 48.828125 44.09375 54.296875 
Q 44.09375 59.90625 40.109375 62.90625 
Q 36.140625 65.921875 28.71875 65.921875 
Q 24.65625 65.921875 20.015625 65.03125 
Q 15.375 64.15625 9.8125 62.3125 
L 9.8125 71.09375 
Q 15.4375 72.65625 20.34375 73.4375 
Q 25.25 74.21875 29.59375 74.21875 
Q 40.828125 74.21875 47.359375 69.109375 
Q 53.90625 64.015625 53.90625 55.328125 
Q 53.90625 49.265625 50.4375 45.09375 
Q 46.96875 40.921875 40.578125 39.3125 
z
" id="DejaVuSans-51"/>
       </defs>
       <use xlink:href="#DejaVuSans-48"/>
       <use x="63.623047" xlink:href="#DejaVuSans-46"/>
       <use x="95.410156" xlink:href="#DejaVuSans-51"/>
      </g>
     </g>
    </g>
    <g id="xtick_3">
     <g id="line2d_3">
      <g>
       <use style="stroke:#000000;stroke-width:1.875;" x="369.032075" xlink:href="#mfdda597f9f" y="630"/>
      </g>
     </g>
     <g id="text_3">
      <!-- 0.4 -->
      <g transform="translate(355.911997 655.037422)scale(0.165 -0.165)">
       <defs>
        <path d="M 37.796875 64.3125 
L 12.890625 25.390625 
L 37.796875 25.390625 
z
M 35.203125 72.90625 
L 47.609375 72.90625 
L 47.609375 25.390625 
L 58.015625 25.390625 
L 58.015625 17.1875 
L 47.609375 17.1875 
L 47.609375 0 
L 37.796875 0 
L 37.796875 17.1875 
L 4.890625 17.1875 
L 4.890625 26.703125 
z
" id="DejaVuSans-52"/>
       </defs>
       <use xlink:href="#DejaVuSans-48"/>
       <use x="63.623047" xlink:href="#DejaVuSans-46"/>
       <use x="95.410156" xlink:href="#DejaVuSans-52"/>
      </g>
     </g>
    </g>
    <g id="xtick_4">
     <g id="line2d_4">
      <g>
       <use style="stroke:#000000;stroke-width:1.875;" x="439.886448" xlink:href="#mfdda597f9f" y="630"/>
      </g>
     </g>
     <g id="text_4">
      <!-- 0.5 -->
      <g transform="translate(426.76637 655.037422)scale(0.165 -0.165)">
       <defs>
        <path d="M 10.796875 72.90625 
L 49.515625 72.90625 
L 49.515625 64.59375 
L 19.828125 64.59375 
L 19.828125 46.734375 
Q 21.96875 47.46875 24.109375 47.828125 
Q 26.265625 48.1875 28.421875 48.1875 
Q 40.625 48.1875 47.75 41.5 
Q 54.890625 34.8125 54.890625 23.390625 
Q 54.890625 11.625 47.5625 5.09375 
Q 40.234375 -1.421875 26.90625 -1.421875 
Q 22.3125 -1.421875 17.546875 -0.640625 
Q 12.796875 0.140625 7.71875 1.703125 
L 7.71875 11.625 
Q 12.109375 9.234375 16.796875 8.0625 
Q 21.484375 6.890625 26.703125 6.890625 
Q 35.15625 6.890625 40.078125 11.328125 
Q 45.015625 15.765625 45.015625 23.390625 
Q 45.015625 31 40.078125 35.4375 
Q 35.15625 39.890625 26.703125 39.890625 
Q 22.75 39.890625 18.8125 39.015625 
Q 14.890625 38.140625 10.796875 36.28125 
z
" id="DejaVuSans-53"/>
       </defs>
       <use xlink:href="#DejaVuSans-48"/>
       <use x="63.623047" xlink:href="#DejaVuSans-46"/>
       <use x="95.410156" xlink:href="#DejaVuSans-53"/>
      </g>
     </g>
    </g>
    <g id="xtick_5">
     <g id="line2d_5">
      <g>
       <use style="stroke:#000000;stroke-width:1.875;" x="510.740822" xlink:href="#mfdda597f9f" y="630"/>
      </g>
     </g>
     <g id="text_5">
      <!-- 0.6 -->
      <g transform="translate(497.620744 655.037422)scale(0.165 -0.165)">
       <defs>
        <path d="M 33.015625 40.375 
Q 26.375 40.375 22.484375 35.828125 
Q 18.609375 31.296875 18.609375 23.390625 
Q 18.609375 15.53125 22.484375 10.953125 
Q 26.375 6.390625 33.015625 6.390625 
Q 39.65625 6.390625 43.53125 10.953125 
Q 47.40625 15.53125 47.40625 23.390625 
Q 47.40625 31.296875 43.53125 35.828125 
Q 39.65625 40.375 33.015625 40.375 
z
M 52.59375 71.296875 
L 52.59375 62.3125 
Q 48.875 64.0625 45.09375 64.984375 
Q 41.3125 65.921875 37.59375 65.921875 
Q 27.828125 65.921875 22.671875 59.328125 
Q 17.53125 52.734375 16.796875 39.40625 
Q 19.671875 43.65625 24.015625 45.921875 
Q 28.375 48.1875 33.59375 48.1875 
Q 44.578125 48.1875 50.953125 41.515625 
Q 57.328125 34.859375 57.328125 23.390625 
Q 57.328125 12.15625 50.6875 5.359375 
Q 44.046875 -1.421875 33.015625 -1.421875 
Q 20.359375 -1.421875 13.671875 8.265625 
Q 6.984375 17.96875 6.984375 36.375 
Q 6.984375 53.65625 15.1875 63.9375 
Q 23.390625 74.21875 37.203125 74.21875 
Q 40.921875 74.21875 44.703125 73.484375 
Q 48.484375 72.75 52.59375 71.296875 
z
" id="DejaVuSans-54"/>
       </defs>
       <use xlink:href="#DejaVuSans-48"/>
       <use x="63.623047" xlink:href="#DejaVuSans-46"/>
       <use x="95.410156" xlink:href="#DejaVuSans-54"/>
      </g>
     </g>
    </g>
    <g id="xtick_6">
     <g id="line2d_6">
      <g>
       <use style="stroke:#000000;stroke-width:1.875;" x="581.595195" xlink:href="#mfdda597f9f" y="630"/>
      </g>
     </g>
     <g id="text_6">
      <!-- 0.7 -->
      <g transform="translate(568.475117 655.037422)scale(0.165 -0.165)">
       <defs>
        <path d="M 8.203125 72.90625 
L 55.078125 72.90625 
L 55.078125 68.703125 
L 28.609375 0 
L 18.3125 0 
L 43.21875 64.59375 
L 8.203125 64.59375 
z
" id="DejaVuSans-55"/>
       </defs>
       <use xlink:href="#DejaVuSans-48"/>
       <use x="63.623047" xlink:href="#DejaVuSans-46"/>
       <use x="95.410156" xlink:href="#DejaVuSans-55"/>
      </g>
     </g>
    </g>
    <g id="xtick_7">
     <g id="line2d_7">
      <g>
       <use style="stroke:#000000;stroke-width:1.875;" x="652.449569" xlink:href="#mfdda597f9f" y="630"/>
      </g>
     </g>
     <g id="text_7">
      <!-- 0.8 -->
      <g transform="translate(639.32949 655.037422)scale(0.165 -0.165)">
       <defs>
        <path d="M 31.78125 34.625 
Q 24.75 34.625 20.71875 30.859375 
Q 16.703125 27.09375 16.703125 20.515625 
Q 16.703125 13.921875 20.71875 10.15625 
Q 24.75 6.390625 31.78125 6.390625 
Q 38.8125 6.390625 42.859375 10.171875 
Q 46.921875 13.96875 46.921875 20.515625 
Q 46.921875 27.09375 42.890625 30.859375 
Q 38.875 34.625 31.78125 34.625 
z
M 21.921875 38.8125 
Q 15.578125 40.375 12.03125 44.71875 
Q 8.5 49.078125 8.5 55.328125 
Q 8.5 64.0625 14.71875 69.140625 
Q 20.953125 74.21875 31.78125 74.21875 
Q 42.671875 74.21875 48.875 69.140625 
Q 55.078125 64.0625 55.078125 55.328125 
Q 55.078125 49.078125 51.53125 44.71875 
Q 48 40.375 41.703125 38.8125 
Q 48.828125 37.15625 52.796875 32.3125 
Q 56.78125 27.484375 56.78125 20.515625 
Q 56.78125 9.90625 50.3125 4.234375 
Q 43.84375 -1.421875 31.78125 -1.421875 
Q 19.734375 -1.421875 13.25 4.234375 
Q 6.78125 9.90625 6.78125 20.515625 
Q 6.78125 27.484375 10.78125 32.3125 
Q 14.796875 37.15625 21.921875 38.8125 
z
M 18.3125 54.390625 
Q 18.3125 48.734375 21.84375 45.5625 
Q 25.390625 42.390625 31.78125 42.390625 
Q 38.140625 42.390625 41.71875 45.5625 
Q 45.3125 48.734375 45.3125 54.390625 
Q 45.3125 60.0625 41.71875 63.234375 
Q 38.140625 66.40625 31.78125 66.40625 
Q 25.390625 66.40625 21.84375 63.234375 
Q 18.3125 60.0625 18.3125 54.390625 
z
" id="DejaVuSans-56"/>
       </defs>
       <use xlink:href="#DejaVuSans-48"/>
       <use x="63.623047" xlink:href="#DejaVuSans-46"/>
       <use x="95.410156" xlink:href="#DejaVuSans-56"/>
      </g>
     </g>
    </g>
    <g id="text_8">
     <!-- Mean -->
     <g transform="translate(409.114176 676.146094)scale(0.18 -0.18)">
      <defs>
       <path d="M 9.8125 72.90625 
L 24.515625 72.90625 
L 43.109375 23.296875 
L 61.8125 72.90625 
L 76.515625 72.90625 
L 76.515625 0 
L 66.890625 0 
L 66.890625 64.015625 
L 48.09375 14.015625 
L 38.1875 14.015625 
L 19.390625 64.015625 
L 19.390625 0 
L 9.8125 0 
z
" id="DejaVuSans-77"/>
       <path d="M 56.203125 29.59375 
L 56.203125 25.203125 
L 14.890625 25.203125 
Q 15.484375 15.921875 20.484375 11.0625 
Q 25.484375 6.203125 34.421875 6.203125 
Q 39.59375 6.203125 44.453125 7.46875 
Q 49.3125 8.734375 54.109375 11.28125 
L 54.109375 2.78125 
Q 49.265625 0.734375 44.1875 -0.34375 
Q 39.109375 -1.421875 33.890625 -1.421875 
Q 20.796875 -1.421875 13.15625 6.1875 
Q 5.515625 13.8125 5.515625 26.8125 
Q 5.515625 40.234375 12.765625 48.109375 
Q 20.015625 56 32.328125 56 
Q 43.359375 56 49.78125 48.890625 
Q 56.203125 41.796875 56.203125 29.59375 
z
M 47.21875 32.234375 
Q 47.125 39.59375 43.09375 43.984375 
Q 39.0625 48.390625 32.421875 48.390625 
Q 24.90625 48.390625 20.390625 44.140625 
Q 15.875 39.890625 15.1875 32.171875 
z
" id="DejaVuSans-101"/>
       <path d="M 34.28125 27.484375 
Q 23.390625 27.484375 19.1875 25 
Q 14.984375 22.515625 14.984375 16.5 
Q 14.984375 11.71875 18.140625 8.90625 
Q 21.296875 6.109375 26.703125 6.109375 
Q 34.1875 6.109375 38.703125 11.40625 
Q 43.21875 16.703125 43.21875 25.484375 
L 43.21875 27.484375 
z
M 52.203125 31.203125 
L 52.203125 0 
L 43.21875 0 
L 43.21875 8.296875 
Q 40.140625 3.328125 35.546875 0.953125 
Q 30.953125 -1.421875 24.3125 -1.421875 
Q 15.921875 -1.421875 10.953125 3.296875 
Q 6 8.015625 6 15.921875 
Q 6 25.140625 12.171875 29.828125 
Q 18.359375 34.515625 30.609375 34.515625 
L 43.21875 34.515625 
L 43.21875 35.40625 
Q 43.21875 41.609375 39.140625 45 
Q 35.0625 48.390625 27.6875 48.390625 
Q 23 48.390625 18.546875 47.265625 
Q 14.109375 46.140625 10.015625 43.890625 
L 10.015625 52.203125 
Q 14.9375 54.109375 19.578125 55.046875 
Q 24.21875 56 28.609375 56 
Q 40.484375 56 46.34375 49.84375 
Q 52.203125 43.703125 52.203125 31.203125 
z
" id="DejaVuSans-97"/>
       <path d="M 54.890625 33.015625 
L 54.890625 0 
L 45.90625 0 
L 45.90625 32.71875 
Q 45.90625 40.484375 42.875 44.328125 
Q 39.84375 48.1875 33.796875 48.1875 
Q 26.515625 48.1875 22.3125 43.546875 
Q 18.109375 38.921875 18.109375 30.90625 
L 18.109375 0 
L 9.078125 0 
L 9.078125 54.6875 
L 18.109375 54.6875 
L 18.109375 46.1875 
Q 21.34375 51.125 25.703125 53.5625 
Q 30.078125 56 35.796875 56 
Q 45.21875 56 50.046875 50.171875 
Q 54.890625 44.34375 54.890625 33.015625 
z
" id="DejaVuSans-110"/>
      </defs>
      <use xlink:href="#DejaVuSans-77"/>
      <use x="86.279297" xlink:href="#DejaVuSans-101"/>
      <use x="147.802734" xlink:href="#DejaVuSans-97"/>
      <use x="209.082031" xlink:href="#DejaVuSans-110"/>
     </g>
    </g>
   </g>
   <g id="matplotlib.axis_2">
    <g id="ytick_1">
     <g id="line2d_8">
      <defs>
       <path d="M 0 0 
L -9 0 
" id="m6f0453b9dc" style="stroke:#000000;stroke-width:1.875;"/>
      </defs>
      <g>
       <use style="stroke:#000000;stroke-width:1.875;" x="180" xlink:href="#m6f0453b9dc" y="532.414488"/>
      </g>
     </g>
     <g id="text_9">
      <!-- 0.10 -->
      <g transform="translate(130.761719 538.683199)scale(0.165 -0.165)">
       <defs>
        <path d="M 12.40625 8.296875 
L 28.515625 8.296875 
L 28.515625 63.921875 
L 10.984375 60.40625 
L 10.984375 69.390625 
L 28.421875 72.90625 
L 38.28125 72.90625 
L 38.28125 8.296875 
L 54.390625 8.296875 
L 54.390625 0 
L 12.40625 0 
z
" id="DejaVuSans-49"/>
       </defs>
       <use xlink:href="#DejaVuSans-48"/>
       <use x="63.623047" xlink:href="#DejaVuSans-46"/>
       <use x="95.410156" xlink:href="#DejaVuSans-49"/>
       <use x="159.033203" xlink:href="#DejaVuSans-48"/>
      </g>
     </g>
    </g>
    <g id="ytick_2">
     <g id="line2d_9">
      <g>
       <use style="stroke:#000000;stroke-width:1.875;" x="180" xlink:href="#m6f0453b9dc" y="413.875959"/>
      </g>
     </g>
     <g id="text_10">
      <!-- 0.15 -->
      <g transform="translate(130.761719 420.14467)scale(0.165 -0.165)">
       <use xlink:href="#DejaVuSans-48"/>
       <use x="63.623047" xlink:href="#DejaVuSans-46"/>
       <use x="95.410156" xlink:href="#DejaVuSans-49"/>
       <use x="159.033203" xlink:href="#DejaVuSans-53"/>
      </g>
     </g>
    </g>
    <g id="ytick_3">
     <g id="line2d_10">
      <g>
       <use style="stroke:#000000;stroke-width:1.875;" x="180" xlink:href="#m6f0453b9dc" y="295.33743"/>
      </g>
     </g>
     <g id="text_11">
      <!-- 0.20 -->
      <g transform="translate(130.761719 301.606141)scale(0.165 -0.165)">
       <use xlink:href="#DejaVuSans-48"/>
       <use x="63.623047" xlink:href="#DejaVuSans-46"/>
       <use x="95.410156" xlink:href="#DejaVuSans-50"/>
       <use x="159.033203" xlink:href="#DejaVuSans-48"/>
      </g>
     </g>
    </g>
    <g id="ytick_4">
     <g id="line2d_11">
      <g>
       <use style="stroke:#000000;stroke-width:1.875;" x="180" xlink:href="#m6f0453b9dc" y="176.798901"/>
      </g>
     </g>
     <g id="text_12">
      <!-- 0.25 -->
      <g transform="translate(130.761719 183.067612)scale(0.165 -0.165)">
       <use xlink:href="#DejaVuSans-48"/>
       <use x="63.623047" xlink:href="#DejaVuSans-46"/>
       <use x="95.410156" xlink:href="#DejaVuSans-50"/>
       <use x="159.033203" xlink:href="#DejaVuSans-53"/>
      </g>
     </g>
    </g>
    <g id="text_13">
     <!-- Std -->
     <g transform="translate(123.018281 373.155469)rotate(-90)scale(0.18 -0.18)">
      <defs>
       <path d="M 53.515625 70.515625 
L 53.515625 60.890625 
Q 47.90625 63.578125 42.921875 64.890625 
Q 37.9375 66.21875 33.296875 66.21875 
Q 25.25 66.21875 20.875 63.09375 
Q 16.5 59.96875 16.5 54.203125 
Q 16.5 49.359375 19.40625 46.890625 
Q 22.3125 44.4375 30.421875 42.921875 
L 36.375 41.703125 
Q 47.40625 39.59375 52.65625 34.296875 
Q 57.90625 29 57.90625 20.125 
Q 57.90625 9.515625 50.796875 4.046875 
Q 43.703125 -1.421875 29.984375 -1.421875 
Q 24.8125 -1.421875 18.96875 -0.25 
Q 13.140625 0.921875 6.890625 3.21875 
L 6.890625 13.375 
Q 12.890625 10.015625 18.65625 8.296875 
Q 24.421875 6.59375 29.984375 6.59375 
Q 38.421875 6.59375 43.015625 9.90625 
Q 47.609375 13.234375 47.609375 19.390625 
Q 47.609375 24.75 44.3125 27.78125 
Q 41.015625 30.8125 33.5 32.328125 
L 27.484375 33.5 
Q 16.453125 35.6875 11.515625 40.375 
Q 6.59375 45.0625 6.59375 53.421875 
Q 6.59375 63.09375 13.40625 68.65625 
Q 20.21875 74.21875 32.171875 74.21875 
Q 37.3125 74.21875 42.625 73.28125 
Q 47.953125 72.359375 53.515625 70.515625 
z
" id="DejaVuSans-83"/>
       <path d="M 18.3125 70.21875 
L 18.3125 54.6875 
L 36.8125 54.6875 
L 36.8125 47.703125 
L 18.3125 47.703125 
L 18.3125 18.015625 
Q 18.3125 11.328125 20.140625 9.421875 
Q 21.96875 7.515625 27.59375 7.515625 
L 36.8125 7.515625 
L 36.8125 0 
L 27.59375 0 
Q 17.1875 0 13.234375 3.875 
Q 9.28125 7.765625 9.28125 18.015625 
L 9.28125 47.703125 
L 2.6875 47.703125 
L 2.6875 54.6875 
L 9.28125 54.6875 
L 9.28125 70.21875 
z
" id="DejaVuSans-116"/>
       <path d="M 45.40625 46.390625 
L 45.40625 75.984375 
L 54.390625 75.984375 
L 54.390625 0 
L 45.40625 0 
L 45.40625 8.203125 
Q 42.578125 3.328125 38.25 0.953125 
Q 33.9375 -1.421875 27.875 -1.421875 
Q 17.96875 -1.421875 11.734375 6.484375 
Q 5.515625 14.40625 5.515625 27.296875 
Q 5.515625 40.1875 11.734375 48.09375 
Q 17.96875 56 27.875 56 
Q 33.9375 56 38.25 53.625 
Q 42.578125 51.265625 45.40625 46.390625 
z
M 14.796875 27.296875 
Q 14.796875 17.390625 18.875 11.75 
Q 22.953125 6.109375 30.078125 6.109375 
Q 37.203125 6.109375 41.296875 11.75 
Q 45.40625 17.390625 45.40625 27.296875 
Q 45.40625 37.203125 41.296875 42.84375 
Q 37.203125 48.484375 30.078125 48.484375 
Q 22.953125 48.484375 18.875 42.84375 
Q 14.796875 37.203125 14.796875 27.296875 
z
" id="DejaVuSans-100"/>
      </defs>
      <use xlink:href="#DejaVuSans-83"/>
      <use x="63.476562" xlink:href="#DejaVuSans-116"/>
      <use x="102.685547" xlink:href="#DejaVuSans-100"/>
     </g>
    </g>
   </g>
   <g id="patch_3">
    <path d="M 180 630 
L 180 86.4 
" style="fill:none;stroke:#000000;stroke-linecap:square;stroke-linejoin:miter;stroke-width:1.875;"/>
   </g>
   <g id="patch_4">
    <path d="M 687.272727 630 
L 687.272727 86.4 
" style="fill:none;stroke:#000000;stroke-linecap:square;stroke-linejoin:miter;stroke-width:1.875;"/>
   </g>
   <g id="patch_5">
    <path d="M 180 630 
L 687.272727 630 
" style="fill:none;stroke:#000000;stroke-linecap:square;stroke-linejoin:miter;stroke-width:1.875;"/>
   </g>
   <g id="patch_6">
    <path d="M 180 86.4 
L 687.272727 86.4 
" style="fill:none;stroke:#000000;stroke-linecap:square;stroke-linejoin:miter;stroke-width:1.875;"/>
   </g>
   <g id="text_14">
    <!-- raw -->
    <g transform="translate(417.060895 80.4)scale(0.18 -0.18)">
     <defs>
      <path d="M 41.109375 46.296875 
Q 39.59375 47.171875 37.8125 47.578125 
Q 36.03125 48 33.890625 48 
Q 26.265625 48 22.1875 43.046875 
Q 18.109375 38.09375 18.109375 28.8125 
L 18.109375 0 
L 9.078125 0 
L 9.078125 54.6875 
L 18.109375 54.6875 
L 18.109375 46.1875 
Q 20.953125 51.171875 25.484375 53.578125 
Q 30.03125 56 36.53125 56 
Q 37.453125 56 38.578125 55.875 
Q 39.703125 55.765625 41.0625 55.515625 
z
" id="DejaVuSans-114"/>
      <path d="M 4.203125 54.6875 
L 13.1875 54.6875 
L 24.421875 12.015625 
L 35.59375 54.6875 
L 46.1875 54.6875 
L 57.421875 12.015625 
L 68.609375 54.6875 
L 77.59375 54.6875 
L 63.28125 0 
L 52.6875 0 
L 40.921875 44.828125 
L 29.109375 0 
L 18.5 0 
z
" id="DejaVuSans-119"/>
     </defs>
     <use xlink:href="#DejaVuSans-114"/>
     <use x="41.113281" xlink:href="#DejaVuSans-97"/>
     <use x="102.392578" xlink:href="#DejaVuSans-119"/>
    </g>
   </g>
  </g>
  <g id="axes_2">
   <g id="patch_7">
    <path d="M 788.727273 630 
L 1296 630 
L 1296 86.4 
L 788.727273 86.4 
z
" style="fill:#ffffff;"/>
   </g>
   <g id="matplotlib.axis_3">
    <g id="xtick_8">
     <g id="line2d_12">
      <g>
       <use style="stroke:#000000;stroke-width:1.875;" x="857.900826" xlink:href="#mfdda597f9f" y="630"/>
      </g>
     </g>
     <g id="text_15">
      <!-- −0.04 -->
      <g transform="translate(832.618444 655.037422)scale(0.165 -0.165)">
       <defs>
        <path d="M 10.59375 35.5 
L 73.1875 35.5 
L 73.1875 27.203125 
L 10.59375 27.203125 
z
" id="DejaVuSans-8722"/>
       </defs>
       <use xlink:href="#DejaVuSans-8722"/>
       <use x="83.789062" xlink:href="#DejaVuSans-48"/>
       <use x="147.412109" xlink:href="#DejaVuSans-46"/>
       <use x="179.199219" xlink:href="#DejaVuSans-48"/>
       <use x="242.822266" xlink:href="#DejaVuSans-52"/>
      </g>
     </g>
    </g>
    <g id="xtick_9">
     <g id="line2d_13">
      <g>
       <use style="stroke:#000000;stroke-width:1.875;" x="950.132231" xlink:href="#mfdda597f9f" y="630"/>
      </g>
     </g>
     <g id="text_16">
      <!-- −0.02 -->
      <g transform="translate(924.849849 655.037422)scale(0.165 -0.165)">
       <use xlink:href="#DejaVuSans-8722"/>
       <use x="83.789062" xlink:href="#DejaVuSans-48"/>
       <use x="147.412109" xlink:href="#DejaVuSans-46"/>
       <use x="179.199219" xlink:href="#DejaVuSans-48"/>
       <use x="242.822266" xlink:href="#DejaVuSans-50"/>
      </g>
     </g>
    </g>
    <g id="xtick_10">
     <g id="line2d_14">
      <g>
       <use style="stroke:#000000;stroke-width:1.875;" x="1042.363636" xlink:href="#mfdda597f9f" y="630"/>
      </g>
     </g>
     <g id="text_17">
      <!-- 0.00 -->
      <g transform="translate(1023.994496 655.037422)scale(0.165 -0.165)">
       <use xlink:href="#DejaVuSans-48"/>
       <use x="63.623047" xlink:href="#DejaVuSans-46"/>
       <use x="95.410156" xlink:href="#DejaVuSans-48"/>
       <use x="159.033203" xlink:href="#DejaVuSans-48"/>
      </g>
     </g>
    </g>
    <g id="xtick_11">
     <g id="line2d_15">
      <g>
       <use style="stroke:#000000;stroke-width:1.875;" x="1134.595041" xlink:href="#mfdda597f9f" y="630"/>
      </g>
     </g>
     <g id="text_18">
      <!-- 0.02 -->
      <g transform="translate(1116.225901 655.037422)scale(0.165 -0.165)">
       <use xlink:href="#DejaVuSans-48"/>
       <use x="63.623047" xlink:href="#DejaVuSans-46"/>
       <use x="95.410156" xlink:href="#DejaVuSans-48"/>
       <use x="159.033203" xlink:href="#DejaVuSans-50"/>
      </g>
     </g>
    </g>
    <g id="xtick_12">
     <g id="line2d_16">
      <g>
       <use style="stroke:#000000;stroke-width:1.875;" x="1226.826446" xlink:href="#mfdda597f9f" y="630"/>
      </g>
     </g>
     <g id="text_19">
      <!-- 0.04 -->
      <g transform="translate(1208.457306 655.037422)scale(0.165 -0.165)">
       <use xlink:href="#DejaVuSans-48"/>
       <use x="63.623047" xlink:href="#DejaVuSans-46"/>
       <use x="95.410156" xlink:href="#DejaVuSans-48"/>
       <use x="159.033203" xlink:href="#DejaVuSans-52"/>
      </g>
     </g>
    </g>
   </g>
   <g id="matplotlib.axis_4">
    <g id="ytick_5">
     <g id="line2d_17">
      <g>
       <use style="stroke:#000000;stroke-width:1.875;" x="788.727273" xlink:href="#m6f0453b9dc" y="555.872727"/>
      </g>
     </g>
     <g id="text_20">
      <!-- −0.04 -->
      <g transform="translate(725.662507 562.141438)scale(0.165 -0.165)">
       <use xlink:href="#DejaVuSans-8722"/>
       <use x="83.789062" xlink:href="#DejaVuSans-48"/>
       <use x="147.412109" xlink:href="#DejaVuSans-46"/>
       <use x="179.199219" xlink:href="#DejaVuSans-48"/>
       <use x="242.822266" xlink:href="#DejaVuSans-52"/>
      </g>
     </g>
    </g>
    <g id="ytick_6">
     <g id="line2d_18">
      <g>
       <use style="stroke:#000000;stroke-width:1.875;" x="788.727273" xlink:href="#m6f0453b9dc" y="457.036364"/>
      </g>
     </g>
     <g id="text_21">
      <!-- −0.02 -->
      <g transform="translate(725.662507 463.305075)scale(0.165 -0.165)">
       <use xlink:href="#DejaVuSans-8722"/>
       <use x="83.789062" xlink:href="#DejaVuSans-48"/>
       <use x="147.412109" xlink:href="#DejaVuSans-46"/>
       <use x="179.199219" xlink:href="#DejaVuSans-48"/>
       <use x="242.822266" xlink:href="#DejaVuSans-50"/>
      </g>
     </g>
    </g>
    <g id="ytick_7">
     <g id="line2d_19">
      <g>
       <use style="stroke:#000000;stroke-width:1.875;" x="788.727273" xlink:href="#m6f0453b9dc" y="358.2"/>
      </g>
     </g>
     <g id="text_22">
      <!-- 0.00 -->
      <g transform="translate(739.488991 364.468711)scale(0.165 -0.165)">
       <use xlink:href="#DejaVuSans-48"/>
       <use x="63.623047" xlink:href="#DejaVuSans-46"/>
       <use x="95.410156" xlink:href="#DejaVuSans-48"/>
       <use x="159.033203" xlink:href="#DejaVuSans-48"/>
      </g>
     </g>
    </g>
    <g id="ytick_8">
     <g id="line2d_20">
      <g>
       <use style="stroke:#000000;stroke-width:1.875;" x="788.727273" xlink:href="#m6f0453b9dc" y="259.363636"/>
      </g>
     </g>
     <g id="text_23">
      <!-- 0.02 -->
      <g transform="translate(739.488991 265.632347)scale(0.165 -0.165)">
       <use xlink:href="#DejaVuSans-48"/>
       <use x="63.623047" xlink:href="#DejaVuSans-46"/>
       <use x="95.410156" xlink:href="#DejaVuSans-48"/>
       <use x="159.033203" xlink:href="#DejaVuSans-50"/>
      </g>
     </g>
    </g>
    <g id="ytick_9">
     <g id="line2d_21">
      <g>
       <use style="stroke:#000000;stroke-width:1.875;" x="788.727273" xlink:href="#m6f0453b9dc" y="160.527273"/>
      </g>
     </g>
     <g id="text_24">
      <!-- 0.04 -->
      <g transform="translate(739.488991 166.795984)scale(0.165 -0.165)">
       <use xlink:href="#DejaVuSans-48"/>
       <use x="63.623047" xlink:href="#DejaVuSans-46"/>
       <use x="95.410156" xlink:href="#DejaVuSans-48"/>
       <use x="159.033203" xlink:href="#DejaVuSans-52"/>
      </g>
     </g>
    </g>
   </g>
   <g id="patch_8">
    <path d="M 788.727273 630 
L 788.727273 86.4 
" style="fill:none;stroke:#000000;stroke-linecap:square;stroke-linejoin:miter;stroke-width:1.875;"/>
   </g>
   <g id="patch_9">
    <path d="M 1296 630 
L 1296 86.4 
" style="fill:none;stroke:#000000;stroke-linecap:square;stroke-linejoin:miter;stroke-width:1.875;"/>
   </g>
   <g id="patch_10">
    <path d="M 788.727273 630 
L 1296 630 
" style="fill:none;stroke:#000000;stroke-linecap:square;stroke-linejoin:miter;stroke-width:1.875;"/>
   </g>
   <g id="patch_11">
    <path d="M 788.727273 86.4 
L 1296 86.4 
" style="fill:none;stroke:#000000;stroke-linecap:square;stroke-linejoin:miter;stroke-width:1.875;"/>
   </g>
   <g id="text_25">
    <!-- log -->
    <g transform="translate(1028.642855 80.4)scale(0.18 -0.18)">
     <defs>
      <path d="M 9.421875 75.984375 
L 18.40625 75.984375 
L 18.40625 0 
L 9.421875 0 
z
" id="DejaVuSans-108"/>
      <path d="M 30.609375 48.390625 
Q 23.390625 48.390625 19.1875 42.75 
Q 14.984375 37.109375 14.984375 27.296875 
Q 14.984375 17.484375 19.15625 11.84375 
Q 23.34375 6.203125 30.609375 6.203125 
Q 37.796875 6.203125 41.984375 11.859375 
Q 46.1875 17.53125 46.1875 27.296875 
Q 46.1875 37.015625 41.984375 42.703125 
Q 37.796875 48.390625 30.609375 48.390625 
z
M 30.609375 56 
Q 42.328125 56 49.015625 48.375 
Q 55.71875 40.765625 55.71875 27.296875 
Q 55.71875 13.875 49.015625 6.21875 
Q 42.328125 -1.421875 30.609375 -1.421875 
Q 18.84375 -1.421875 12.171875 6.21875 
Q 5.515625 13.875 5.515625 27.296875 
Q 5.515625 40.765625 12.171875 48.375 
Q 18.84375 56 30.609375 56 
z
" id="DejaVuSans-111"/>
      <path d="M 45.40625 27.984375 
Q 45.40625 37.75 41.375 43.109375 
Q 37.359375 48.484375 30.078125 48.484375 
Q 22.859375 48.484375 18.828125 43.109375 
Q 14.796875 37.75 14.796875 27.984375 
Q 14.796875 18.265625 18.828125 12.890625 
Q 22.859375 7.515625 30.078125 7.515625 
Q 37.359375 7.515625 41.375 12.890625 
Q 45.40625 18.265625 45.40625 27.984375 
z
M 54.390625 6.78125 
Q 54.390625 -7.171875 48.1875 -13.984375 
Q 42 -20.796875 29.203125 -20.796875 
Q 24.46875 -20.796875 20.265625 -20.09375 
Q 16.0625 -19.390625 12.109375 -17.921875 
L 12.109375 -9.1875 
Q 16.0625 -11.328125 19.921875 -12.34375 
Q 23.78125 -13.375 27.78125 -13.375 
Q 36.625 -13.375 41.015625 -8.765625 
Q 45.40625 -4.15625 45.40625 5.171875 
L 45.40625 9.625 
Q 42.625 4.78125 38.28125 2.390625 
Q 33.9375 0 27.875 0 
Q 17.828125 0 11.671875 7.65625 
Q 5.515625 15.328125 5.515625 27.984375 
Q 5.515625 40.671875 11.671875 48.328125 
Q 17.828125 56 27.875 56 
Q 33.9375 56 38.28125 53.609375 
Q 42.625 51.21875 45.40625 46.390625 
L 45.40625 54.6875 
L 54.390625 54.6875 
z
" id="DejaVuSans-103"/>
     </defs>
     <use xlink:href="#DejaVuSans-108"/>
     <use x="27.783203" xlink:href="#DejaVuSans-111"/>
     <use x="88.964844" xlink:href="#DejaVuSans-103"/>
    </g>
   </g>
  </g>
  <g id="text_26">
   <!-- pre_CCLE_RPPA -->
   <g transform="translate(636.348938 30.43125)scale(0.216 -0.216)">
    <defs>
     <path d="M 18.109375 8.203125 
L 18.109375 -20.796875 
L 9.078125 -20.796875 
L 9.078125 54.6875 
L 18.109375 54.6875 
L 18.109375 46.390625 
Q 20.953125 51.265625 25.265625 53.625 
Q 29.59375 56 35.59375 56 
Q 45.5625 56 51.78125 48.09375 
Q 58.015625 40.1875 58.015625 27.296875 
Q 58.015625 14.40625 51.78125 6.484375 
Q 45.5625 -1.421875 35.59375 -1.421875 
Q 29.59375 -1.421875 25.265625 0.953125 
Q 20.953125 3.328125 18.109375 8.203125 
z
M 48.6875 27.296875 
Q 48.6875 37.203125 44.609375 42.84375 
Q 40.53125 48.484375 33.40625 48.484375 
Q 26.265625 48.484375 22.1875 42.84375 
Q 18.109375 37.203125 18.109375 27.296875 
Q 18.109375 17.390625 22.1875 11.75 
Q 26.265625 6.109375 33.40625 6.109375 
Q 40.53125 6.109375 44.609375 11.75 
Q 48.6875 17.390625 48.6875 27.296875 
z
" id="DejaVuSans-112"/>
     <path d="M 50.984375 -16.609375 
L 50.984375 -23.578125 
L -0.984375 -23.578125 
L -0.984375 -16.609375 
z
" id="DejaVuSans-95"/>
     <path d="M 64.40625 67.28125 
L 64.40625 56.890625 
Q 59.421875 61.53125 53.78125 63.8125 
Q 48.140625 66.109375 41.796875 66.109375 
Q 29.296875 66.109375 22.65625 58.46875 
Q 16.015625 50.828125 16.015625 36.375 
Q 16.015625 21.96875 22.65625 14.328125 
Q 29.296875 6.6875 41.796875 6.6875 
Q 48.140625 6.6875 53.78125 8.984375 
Q 59.421875 11.28125 64.40625 15.921875 
L 64.40625 5.609375 
Q 59.234375 2.09375 53.4375 0.328125 
Q 47.65625 -1.421875 41.21875 -1.421875 
Q 24.65625 -1.421875 15.125 8.703125 
Q 5.609375 18.84375 5.609375 36.375 
Q 5.609375 53.953125 15.125 64.078125 
Q 24.65625 74.21875 41.21875 74.21875 
Q 47.75 74.21875 53.53125 72.484375 
Q 59.328125 70.75 64.40625 67.28125 
z
" id="DejaVuSans-67"/>
     <path d="M 9.8125 72.90625 
L 19.671875 72.90625 
L 19.671875 8.296875 
L 55.171875 8.296875 
L 55.171875 0 
L 9.8125 0 
z
" id="DejaVuSans-76"/>
     <path d="M 9.8125 72.90625 
L 55.90625 72.90625 
L 55.90625 64.59375 
L 19.671875 64.59375 
L 19.671875 43.015625 
L 54.390625 43.015625 
L 54.390625 34.71875 
L 19.671875 34.71875 
L 19.671875 8.296875 
L 56.78125 8.296875 
L 56.78125 0 
L 9.8125 0 
z
" id="DejaVuSans-69"/>
     <path d="M 44.390625 34.1875 
Q 47.5625 33.109375 50.5625 29.59375 
Q 53.5625 26.078125 56.59375 19.921875 
L 66.609375 0 
L 56 0 
L 46.6875 18.703125 
Q 43.0625 26.03125 39.671875 28.421875 
Q 36.28125 30.8125 30.421875 30.8125 
L 19.671875 30.8125 
L 19.671875 0 
L 9.8125 0 
L 9.8125 72.90625 
L 32.078125 72.90625 
Q 44.578125 72.90625 50.734375 67.671875 
Q 56.890625 62.453125 56.890625 51.90625 
Q 56.890625 45.015625 53.6875 40.46875 
Q 50.484375 35.9375 44.390625 34.1875 
z
M 19.671875 64.796875 
L 19.671875 38.921875 
L 32.078125 38.921875 
Q 39.203125 38.921875 42.84375 42.21875 
Q 46.484375 45.515625 46.484375 51.90625 
Q 46.484375 58.296875 42.84375 61.546875 
Q 39.203125 64.796875 32.078125 64.796875 
z
" id="DejaVuSans-82"/>
     <path d="M 19.671875 64.796875 
L 19.671875 37.40625 
L 32.078125 37.40625 
Q 38.96875 37.40625 42.71875 40.96875 
Q 46.484375 44.53125 46.484375 51.125 
Q 46.484375 57.671875 42.71875 61.234375 
Q 38.96875 64.796875 32.078125 64.796875 
z
M 9.8125 72.90625 
L 32.078125 72.90625 
Q 44.34375 72.90625 50.609375 67.359375 
Q 56.890625 61.8125 56.890625 51.125 
Q 56.890625 40.328125 50.609375 34.8125 
Q 44.34375 29.296875 32.078125 29.296875 
L 19.671875 29.296875 
L 19.671875 0 
L 9.8125 0 
z
" id="DejaVuSans-80"/>
     <path d="M 34.1875 63.1875 
L 20.796875 26.90625 
L 47.609375 26.90625 
z
M 28.609375 72.90625 
L 39.796875 72.90625 
L 67.578125 0 
L 57.328125 0 
L 50.6875 18.703125 
L 17.828125 18.703125 
L 11.1875 0 
L 0.78125 0 
z
" id="DejaVuSans-65"/>
    </defs>
    <use xlink:href="#DejaVuSans-112"/>
    <use x="63.476562" xlink:href="#DejaVuSans-114"/>
    <use x="102.339844" xlink:href="#DejaVuSans-101"/>
    <use x="163.863281" xlink:href="#DejaVuSans-95"/>
    <use x="213.863281" xlink:href="#DejaVuSans-67"/>
    <use x="283.6875" xlink:href="#DejaVuSans-67"/>
    <use x="353.511719" xlink:href="#DejaVuSans-76"/>
    <use x="409.224609" xlink:href="#DejaVuSans-69"/>
    <use x="472.408203" xlink:href="#DejaVuSans-95"/>
    <use x="522.408203" xlink:href="#DejaVuSans-82"/>
    <use x="591.890625" xlink:href="#DejaVuSans-80"/>
    <use x="652.193359" xlink:href="#DejaVuSans-80"/>
    <use x="706.121094" xlink:href="#DejaVuSans-65"/>
   </g>
  </g>
 </g>
 <defs>
  <clipPath id="p935c5dc453">
   <rect height="543.6" width="507.272727" x="180" y="86.4"/>
  </clipPath>
 </defs>
</svg>
